<svg xmlns="http://www.w3.org/2000/svg" width="123.844" height="123.844" viewBox="0 0 123.844 123.844">
  <g id="_2857292" data-name="2857292" transform="translate(-1 -1)">
    <path id="Path_12144" data-name="Path 12144" d="M18,57h3.995v3.995H18Z" transform="translate(16.957 55.859)" fill="#1192ba"/>
    <path id="Path_12145" data-name="Path 12145" d="M14,57h3.995v3.995H14Z" transform="translate(12.967 55.859)" fill="#1192ba"/>
    <path id="Path_12146" data-name="Path 12146" d="M40,43h3.995v3.995H40Z" transform="translate(38.902 41.894)" fill="#1192ba"/>
    <path id="Path_12147" data-name="Path 12147" d="M44,43h3.995v3.995H44Z" transform="translate(42.892 41.894)" fill="#1192ba"/>
    <path id="Path_12148" data-name="Path 12148" d="M14,29h3.995v3.995H14Z" transform="translate(12.967 27.929)" fill="#1192ba"/>
    <path id="Path_12149" data-name="Path 12149" d="M18,29h3.995v3.995H18Z" transform="translate(16.957 27.929)" fill="#1192ba"/>
    <path id="Path_12150" data-name="Path 12150" d="M40.987,20.982h3.995A14,14,0,0,0,31,7v3.995A10,10,0,0,1,40.987,20.982Z" transform="translate(29.924 5.985)" fill="#1192ba"/>
    <path id="Path_12151" data-name="Path 12151" d="M8.995,23H5a8,8,0,0,0,7.99,7.99V26.995A4,4,0,0,1,8.995,23Z" transform="translate(3.99 21.945)" fill="#1192ba"/>
    <path id="Path_12152" data-name="Path 12152" d="M38,20.995a6,6,0,0,1,5.992,5.992h3.995A10,10,0,0,0,38,17Z" transform="translate(36.907 15.96)" fill="#1192ba"/>
    <path id="Path_12153" data-name="Path 12153" d="M124.844,38.507V23.416l-5.6-1.424c-.238-.637-.505-1.276-.8-1.912l2.954-4.972L110.732,4.438,105.76,7.394c-.633-.294-1.274-.561-1.91-.8L102.426,1H87.335L85.913,6.6c-.635.238-1.276.5-1.91.8L79.032,4.44,74.07,9.4a21.906,21.906,0,0,0-32.349,6.9,17.975,17.975,0,0,0-24.289,12.67c-.154-.006-.3-.008-.451-.008a15.98,15.98,0,0,0,0,31.96h2v2a6,6,0,0,0,5.992,5.992V76.9A6,6,0,0,0,18.977,82.9v7.99a6,6,0,0,0,5.992,5.992v7.99a6,6,0,0,0-5.992,5.992v7.99a6,6,0,0,0,5.992,5.992H92.884a6,6,0,0,0,5.992-5.992v-7.99a6,6,0,0,0-5.992-5.992v-7.99a6,6,0,0,0,5.992-5.992V82.9A6,6,0,0,0,92.884,76.9v-7.99a6,6,0,0,0,5.992-5.992v-2h3.55l1.424-5.6c.635-.238,1.276-.5,1.91-.8l4.972,2.956L121.4,46.814l-2.954-4.972c.294-.633.561-1.272.8-1.91ZM16.98,56.929a11.985,11.985,0,0,1,0-23.97,11.756,11.756,0,0,1,1.81.154l2.047.31.234-2.059A13.978,13.978,0,0,1,41.675,20.7l1.912,1.051.877-2a18.351,18.351,0,0,1,4.415-6.119A17.783,17.783,0,0,1,60.924,8.99,18,18,0,0,1,78.9,26.967c0,.228-.018.451-.032.675l-.106,1.8,1.332.533A13.906,13.906,0,0,1,87.511,48.94h-16.6V32.96H58.927V48.94H54.932V24.97H42.947V48.94H38.952V36.955H26.967V48.94h-2a6,6,0,0,0-5.992,5.992v2ZM88.889,30.962a5.992,5.992,0,1,1,5.992,5.992,5.766,5.766,0,0,1-3.488-1.177,17.806,17.806,0,0,0-2.411-3.993,6.041,6.041,0,0,1-.094-.823Zm3.835,9.714a9.685,9.685,0,0,0,2.157.274A9.987,9.987,0,1,0,85.3,28.3a18.27,18.27,0,0,0-2.4-1.45,21.8,21.8,0,0,0-.194-2.671A13.965,13.965,0,1,1,94.882,44.945a13.587,13.587,0,0,1-2.117-.18,17.8,17.8,0,0,0,.12-1.818A18.169,18.169,0,0,0,92.724,40.676ZM66.917,48.94H62.922V36.955h3.995Zm-15.98,0H46.942V28.965h3.995Zm-15.98,0H30.962V40.95h3.995Zm59.924,61.922v7.99a2,2,0,0,1-2,2H24.97a2,2,0,0,1-2-2v-7.99a2,2,0,0,1,2-2H92.884A2,2,0,0,1,94.882,110.861Zm-5.992-5.992H28.965v-7.99H88.889ZM94.882,82.9v7.99a2,2,0,0,1-2,2H24.97a2,2,0,0,1-2-2V82.9a2,2,0,0,1,2-2H92.884A2,2,0,0,1,94.882,82.9ZM88.889,76.9H28.965v-7.99H88.889Zm5.992-13.982a2,2,0,0,1-2,2H24.97a2,2,0,0,1-2-2v-7.99a2,2,0,0,1,2-2H92.884a2,2,0,0,1,2,2Zm21.5-16.737L110.1,52.463l-4.185-2.489-.983.507a21.928,21.928,0,0,1-3.368,1.406l-1.055.338-1.192,4.7h-.445v-2a6,6,0,0,0-5.992-5.992H91.819c.034-.094.064-.188.1-.282a17.768,17.768,0,0,0,2.966.282A17.977,17.977,0,1,0,81.415,19.1a21.954,21.954,0,0,0-4.376-7.017l2.621-2.621,4.185,2.489.983-.507a21.928,21.928,0,0,1,3.368-1.406L89.249,9.7l1.192-4.7H99.32l1.194,4.7,1.055.338a21.928,21.928,0,0,1,3.368,1.406l.983.507L110.1,9.459l6.278,6.278-2.489,4.185.509.985a21.964,21.964,0,0,1,1.408,3.362l.336,1.055,4.7,1.2V35.4l-4.7,1.2-.336,1.055a21.983,21.983,0,0,1-1.406,3.362l-.511.985Z" transform="translate(0)" fill="#5db442"/>
  </g>
</svg>
