<svg xmlns="http://www.w3.org/2000/svg" width="122.801" height="122.825" viewBox="0 0 122.801 122.825">
  <g id="_809504" data-name="809504" transform="translate(-0.048)">
    <g id="Group_1265" data-name="Group 1265" transform="translate(0.048 0)">
      <g id="Group_1264" data-name="Group 1264">
        <path id="Path_12154" data-name="Path 12154" d="M122.737,33.448a8.161,8.161,0,0,0-15.742-1.4l-25.1-2.283a12.191,12.191,0,0,0-.959-3.911l18-11.642a8.447,8.447,0,1,0-2.223-3.438l-18,11.659a12.246,12.246,0,0,0-20.319,3.477l-21.605-5.2A18.409,18.409,0,1,0,16.224,36.675q.833.1,1.672.133l1.763,22.908a12.258,12.258,0,0,0-2.8,22.722l-8,24c-.186-.012-.362-.055-.552-.055a8.22,8.22,0,1,0,4.441,1.327l8-23.986a11.178,11.178,0,0,0,3.764,0l8,23.986a8.159,8.159,0,1,0,4.438-1.327c-.19,0-.366.043-.552.055l-8-24A12.272,12.272,0,0,0,23.735,59.4l-1.759-22.89A18.45,18.45,0,0,0,35.825,24.685l21.614,5.187c-.02.276-.043.552-.043.832a12.272,12.272,0,0,0,24.123,3.131l25.1,2.283a8.169,8.169,0,1,0,16.119-2.671ZM104.44,4.115a4.091,4.091,0,1,1-4.091,4.091A4.091,4.091,0,0,1,104.44,4.115ZM8.307,118.656a4.091,4.091,0,1,1,4.091-4.091A4.091,4.091,0,0,1,8.307,118.656Zm28.635-8.182a4.091,4.091,0,1,1-4.091,4.091A4.091,4.091,0,0,1,36.942,110.475ZM22.624,63.431a8.182,8.182,0,1,1-8.182,8.182A8.182,8.182,0,0,1,22.624,63.431ZM18.534,32.75A14.318,14.318,0,1,1,32.851,18.432,14.318,14.318,0,0,1,18.534,32.75Zm51.135,6.136A8.182,8.182,0,1,1,77.85,30.7,8.182,8.182,0,0,1,69.668,38.886Zm45,0a4.091,4.091,0,1,1,4.091-4.091A4.091,4.091,0,0,1,114.667,38.886Z" transform="translate(-0.048 0)" fill="#1192ba"/>
      </g>
    </g>
    <g id="Group_1267" data-name="Group 1267" transform="translate(41.042 47.095)">
      <g id="Group_1266" data-name="Group 1266">
        <path id="Path_12155" data-name="Path 12155" d="M226.411,223.223a18.385,18.385,0,0,0-19.794,11.628l-17.66-4.606c.033-.356.055-.712.055-1.074a12.211,12.211,0,0,0-2.849-7.85l11.542-13.465a8.068,8.068,0,0,0,3.579.861,8.221,8.221,0,1,0-6.7-3.51l-11.534,13.459a12.177,12.177,0,0,0-6.312-1.767c-.2,0-.409.02-.614.031l-3.851-17.322a8.155,8.155,0,1,0-3.991.9l3.845,17.3a12.272,12.272,0,1,0,15.8,16.392l17.648,4.608a18.4,18.4,0,1,0,20.831-15.586Zm-25.126-26.778a4.091,4.091,0,1,1-4.091,4.091A4.091,4.091,0,0,1,201.286,196.445Zm-32.726,0a4.091,4.091,0,1,1,4.091-4.091A4.091,4.091,0,0,1,168.559,196.445Zm8.182,40.908a8.182,8.182,0,1,1,8.182-8.182A8.182,8.182,0,0,1,176.741,237.352Zm47.044,18.408A14.318,14.318,0,1,1,238.1,241.443,14.318,14.318,0,0,1,223.785,255.761Z" transform="translate(-160.387 -184.199)" fill="#5db442"/>
      </g>
    </g>
  </g>
</svg>
